<svg xmlns="http://www.w3.org/2000/svg" version="1.1" viewBox="-8 -8 32 32"><title>fontsize16</title><g id="fontsize16" fill="none" fill-rule="evenodd" stroke="none" stroke-width="1"><g id="Group-5" transform="translate(1.000000, -2.100000)"><polygon id="Fill-1" fill="#2E77D0" points="14.059 3.656 11.714 1.312 9.37 3.656 8.916 3.201 11.714 .403 14.513 3.201"/><polygon id="Fill-2" fill="#2E77D0" points="11.714 8.169 8.916 5.37 9.37 4.916 11.714 7.259 14.059 4.916 14.513 5.37"/><path id="Fill-3" fill="#666" d="M4.90514286,5.04577143 L4.87142857,5.04577143 C4.77657143,5.41948571 4.68457143,5.71834286 4.59542857,5.9412 L2.57828571,11.4286286 L7.20685714,11.4286286 L5.18114286,5.95834286 L4.90514286,5.04577143 Z M8.86457143,16.0000571 L7.49142857,12.2109143 L2.28514286,12.2109143 L0.912571429,16.0000571 L0,16.0000571 L4.52857143,4.00005714 L5.31542857,4.00005714 L9.79371429,16.0000571 L8.86457143,16.0000571 Z"/></g></g></svg>